<?xml version="1.0" encoding="UTF-8" standalone="no"?>
<!-- Created with Inkscape (http://www.inkscape.org/) -->

<svg
   width="512px"
   height="512px"
   viewBox="0 0 512 512"
   id="SVGRoot"
   version="1.1"
   enable-background="new"
   inkscape:version="1.3.2 (091e20e, 2023-11-25, custom)"
   sodipodi:docname="energy_icons.svg"
   xml:space="preserve"
   inkscape:export-filename="energy_icons.png"
   inkscape:export-xdpi="96"
   inkscape:export-ydpi="96"
   xmlns:inkscape="http://www.inkscape.org/namespaces/inkscape"
   xmlns:sodipodi="http://sodipodi.sourceforge.net/DTD/sodipodi-0.dtd"
   xmlns:xlink="http://www.w3.org/1999/xlink"
   xmlns="http://www.w3.org/2000/svg"
   xmlns:svg="http://www.w3.org/2000/svg"><defs
     id="defs4787"><clipPath
       clipPathUnits="userSpaceOnUse"
       id="patternClipPath"><rect
         y="0"
         x="0"
         height="512"
         width="512"
         id="clipPathRect"
         style="color:#000000;display:inline;overflow:visible;visibility:visible;opacity:1;fill:#ffff00;fill-opacity:1;fill-rule:nonzero;stroke:none;stroke-width:20;stroke-linecap:square;stroke-linejoin:miter;stroke-miterlimit:4;stroke-dasharray:none;stroke-dashoffset:1.09889996;stroke-opacity:1;marker:none;enable-background:accumulate" /></clipPath><marker
       inkscape:stockid="Arrow2Mend"
       orient="auto"
       refY="0.0"
       refX="0.0"
       id="Arrow2Mend"
       style="overflow:visible;"
       inkscape:isstock="true"><path
         id="path19572"
         style="fill-rule:evenodd;stroke-width:0.625;stroke-linejoin:round;stroke:#000000;stroke-opacity:1;fill:#000000;fill-opacity:1"
         d="M 8.7185878,4.0337352 L -2.2072895,0.016013256 L 8.7185884,-4.0017078 C 6.9730900,-1.6296469 6.9831476,1.6157441 8.7185878,4.0337352 z "
         transform="scale(0.6) rotate(180) translate(0,0)" /></marker></defs><sodipodi:namedview
     id="base"
     pagecolor="#ffffff"
     bordercolor="#666666"
     borderopacity="1.0"
     inkscape:pageopacity="0"
     inkscape:pageshadow="2"
     inkscape:zoom="0.55242717"
     inkscape:cx="95.940248"
     inkscape:cy="99.560635"
     inkscape:document-units="px"
     inkscape:current-layer="designTop"
     showgrid="false"
     inkscape:pagecheckerboard="true"
     inkscape:window-width="1920"
     inkscape:window-height="1009"
     inkscape:window-x="-8"
     inkscape:window-y="-8"
     inkscape:window-maximized="1"
     inkscape:blackoutopacity="0.0"
     showborder="true"
     inkscape:showpageshadow="true"
     borderlayer="false"
     inkscape:deskcolor="#d1d1d1" /><g
     inkscape:groupmode="layer"
     id="patternLayer"
     inkscape:label="Pattern"
     style="display:inline"><g
       id="g8891"
       sodipodi:insensitive="true"
       style="display:inline"
       inkscape:label="preview"><use
         x="0"
         y="0"
         xlink:href="#fullPattern"
         id="fullPatternClone"
         transform="translate(1024,-512)"
         width="512"
         height="512"
         inkscape:tile-cx="256.0"
         inkscape:tile-cy="256.0"
         inkscape:tile-w="512"
         inkscape:tile-h="512"
         inkscape:tile-x0="512"
         inkscape:tile-y0="512" /><use
         height="100%"
         width="100%"
         x="0"
         y="0"
         inkscape:tiled-clone-of="#fullPatternClone"
         xlink:href="#fullPatternClone"
         transform="translate(0,512)"
         id="clonePreview1" /><use
         height="100%"
         width="100%"
         x="0"
         y="0"
         inkscape:tiled-clone-of="#fullPatternClone"
         xlink:href="#fullPatternClone"
         transform="translate(0,1024)"
         id="clonePreview2" /><use
         height="100%"
         width="100%"
         x="0"
         y="0"
         inkscape:tiled-clone-of="#fullPatternClone"
         xlink:href="#fullPatternClone"
         transform="translate(512)"
         id="clonePreview3" /><use
         height="100%"
         width="100%"
         x="0"
         y="0"
         inkscape:tiled-clone-of="#fullPatternClone"
         xlink:href="#fullPatternClone"
         transform="translate(512,512)"
         id="clonePreview4" /><use
         height="100%"
         width="100%"
         x="0"
         y="0"
         inkscape:tiled-clone-of="#fullPatternClone"
         xlink:href="#fullPatternClone"
         transform="translate(512,1024)"
         id="clonePreview5" /><use
         height="100%"
         width="100%"
         x="0"
         y="0"
         inkscape:tiled-clone-of="#fullPatternClone"
         xlink:href="#fullPatternClone"
         transform="translate(1024)"
         id="clonePreview6" /><use
         height="100%"
         width="100%"
         x="0"
         y="0"
         inkscape:tiled-clone-of="#fullPatternClone"
         xlink:href="#fullPatternClone"
         transform="translate(1024,512)"
         id="clonePreview7" /><use
         height="100%"
         width="100%"
         x="0"
         y="0"
         inkscape:tiled-clone-of="#fullPatternClone"
         xlink:href="#fullPatternClone"
         transform="translate(1024,1024)"
         id="clonePreview8" /></g><use
       style="display:inline;opacity:0.3"
       height="100%"
       width="100%"
       id="phantomBottom"
       xlink:href="#designBottom"
       y="0"
       x="0"
       sodipodi:insensitive="true" /><use
       style="display:inline;opacity:0.3"
       height="100%"
       width="100%"
       id="phantomTop"
       xlink:href="#designTop"
       y="0"
       x="0"
       sodipodi:insensitive="true" /><g
       id="infoGroup"
       sodipodi:insensitive="true"
       transform="scale(5.12)"
       style="display:inline"><rect
         style="opacity:1;fill:#ffffff;fill-opacity:1;fill-rule:evenodd;stroke:none;stroke-width:76.9908;stroke-linecap:round;stroke-linejoin:round;stroke-miterlimit:4;stroke-dasharray:none;stroke-dashoffset:0;stroke-opacity:1;paint-order:normal"
         id="rect4130"
         width="526.66248"
         height="360.00635"
         x="-348.83969"
         y="-380.86212" /><text
         xml:space="preserve"
         style="font-style:normal;font-variant:normal;font-weight:normal;font-stretch:normal;line-height:0%;font-family:sans-serif;-inkscape-font-specification:Verdana;letter-spacing:0px;word-spacing:0px;fill:#000000;fill-opacity:1;stroke:none"
         x="-326.82172"
         y="-349.80621"
         id="text8664"><tspan
           style="font-style:normal;font-variant:normal;font-weight:bold;font-stretch:normal;font-size:23.6686px;line-height:1.25;font-family:sans-serif;-inkscape-font-specification:'sans-serif Bold'"
           sodipodi:role="line"
           id="tspan8666"
           x="-326.82172"
           y="-349.80621">Seamless pattern</tspan></text><flowRoot
         xml:space="preserve"
         id="infoText"
         style="font-style:normal;font-variant:normal;font-weight:normal;font-stretch:normal;line-height:0.01%;font-family:sans-serif;-inkscape-font-specification:sans-serif;letter-spacing:0px;word-spacing:0px;fill:#000000;fill-opacity:1;stroke:none"
         transform="translate(-709.3014,-231.7039)"><flowRegion
           id="flowRegion11597"><rect
             ry="0.97061312"
             id="rect11599"
             width="491.7114"
             height="324.99371"
             x="383.75671"
             y="-110.4523"
             style="font-style:normal;font-variant:normal;font-weight:normal;font-stretch:normal;font-size:13.75px;font-family:sans-serif;-inkscape-font-specification:sans-serif" /></flowRegion><flowPara
           style="font-style:normal;font-variant:normal;font-weight:normal;font-stretch:normal;font-size:12.5px;line-height:1.25;font-family:Cantarell;-inkscape-font-specification:Cantarell"
           id="flowPara6756">Use the layers &quot;<flowSpan
   style="font-style:normal;font-variant:normal;font-weight:bold;font-stretch:normal;font-family:Cantarell;-inkscape-font-specification:'Cantarell Bold'"
   id="flowSpan7476">Pattern Foreground</flowSpan>&quot; and &quot;<flowSpan
   style="font-style:normal;font-variant:normal;font-weight:bold;font-stretch:normal;font-family:Cantarell;-inkscape-font-specification:'Cantarell Bold'"
   id="flowSpan7478">Pattern Background</flowSpan>&quot; on the pattern page to create your design. The separation into two layers will make it easier for you to create and edit overlapping content like a foreground drawing with a background fill.</flowPara><flowPara
           style="font-style:normal;font-variant:normal;font-weight:normal;font-stretch:normal;font-size:12.5px;line-height:1.25;font-family:Cantarell;-inkscape-font-specification:Cantarell"
           id="flowPara7456"> </flowPara><flowPara
           style="font-style:normal;font-variant:normal;font-weight:normal;font-stretch:normal;font-size:12.5px;line-height:1.25;font-family:Cantarell;-inkscape-font-specification:Cantarell"
           id="flowPara7458">The layer named &quot;<flowSpan
   style="font-style:normal;font-variant:normal;font-weight:bold;font-stretch:normal;font-family:Cantarell;-inkscape-font-specification:'Cantarell Bold'"
   id="flowSpan7480">Pattern</flowSpan>&quot; is for using the seamless pattern, copying it to other documents, adding opacity etc. </flowPara><flowPara
           style="font-style:normal;font-variant:normal;font-weight:normal;font-stretch:normal;font-size:12.5px;line-height:1.25;font-family:Cantarell;-inkscape-font-specification:Cantarell"
           id="flowPara7460">Select the group on the page, and use <flowSpan
   style="font-style:normal;font-variant:normal;font-weight:bold;font-stretch:normal;font-family:Cantarell;-inkscape-font-specification:'Cantarell Bold'"
   id="flowSpan7484">Object-&gt;Pattern-&gt;Objects to Pattern</flowSpan> to convert your creation into a fill pattern.</flowPara><flowPara
           style="font-style:normal;font-variant:normal;font-weight:normal;font-stretch:normal;font-size:12.5px;line-height:1.25;font-family:Cantarell;-inkscape-font-specification:Cantarell"
           id="flowPara7462"> </flowPara><flowPara
           style="font-style:normal;font-variant:normal;font-weight:normal;font-stretch:normal;font-size:12.5px;line-height:1.25;font-family:Cantarell;-inkscape-font-specification:Cantarell"
           id="flowPara7464">The layer &quot;<flowSpan
   style="font-style:normal;font-variant:normal;font-weight:bold;font-stretch:normal;font-family:Cantarell;-inkscape-font-specification:'Cantarell Bold'"
   id="flowSpan7482">Preview Background</flowSpan>&quot; provides an easy way to preview your creation if it contains transparency.</flowPara><flowPara
           style="font-style:normal;font-variant:normal;font-weight:normal;font-stretch:normal;font-size:12.5px;line-height:1.25;font-family:Cantarell;-inkscape-font-specification:Cantarell"
           id="flowPara7466">Changing this layer's visibility will not alter the pattern.</flowPara><flowPara
           style="font-style:normal;font-variant:normal;font-weight:normal;font-stretch:normal;font-size:12.5px;line-height:1.25;font-family:Cantarell;-inkscape-font-specification:Cantarell"
           id="flowPara7468"> </flowPara><flowPara
           style="font-style:normal;font-variant:normal;font-weight:normal;font-stretch:normal;font-size:12.5px;line-height:1.25;font-family:Cantarell;-inkscape-font-specification:Cantarell"
           id="flowPara7470">If an object is moved outside the pattern/page limits, it will be difficult to select it. </flowPara><flowPara
           style="font-style:normal;font-variant:normal;font-weight:normal;font-stretch:normal;font-size:12.5px;line-height:1.25;font-family:Cantarell;-inkscape-font-specification:Cantarell"
           id="flowPara7472">To move it back onto the page, select the object using the rubberband selection (click and drag a selection box) with the selection tool.</flowPara><flowPara
           style="font-style:normal;font-variant:normal;font-weight:normal;font-stretch:normal;font-size:12.5px;line-height:1.25;font-family:Cantarell;-inkscape-font-specification:Cantarell"
           id="flowPara7474">Then move it back onto the page, using the arrow keys or the &quot;Align and Distribute&quot; dialog (Shift+Ctrl+A).</flowPara></flowRoot><path
         sodipodi:nodetypes="cccc"
         inkscape:connector-curvature="0"
         id="path19539"
         d="m -354.4906,-359.49 h -6.1704 V 51.51566 h 229.6052"
         style="color:#000000;text-decoration:none;text-decoration-line:none;display:inline;overflow:visible;visibility:visible;fill:none;stroke:#000000;stroke-width:3.77953;stroke-linecap:butt;stroke-linejoin:miter;stroke-miterlimit:4;stroke-dasharray:none;stroke-dashoffset:0;stroke-opacity:1;marker:none;marker-end:url(#Arrow2Mend);enable-background:accumulate" /></g><g
       id="textPreview"
       sodipodi:insensitive="true"
       transform="matrix(5.12,0,0,5.12,5242.88,0)"
       style="display:inline"><path
         d="m -29.56541,100 v -7.16704 h 2.00731 v 4.51126 h 1.91761 v -4.24223 h 2.00731 v 4.24223 h 4.36647 V 100 Z"
         style="font-style:normal;font-variant:normal;font-weight:bold;font-stretch:normal;font-size:medium;line-height:125%;font-family:sans-serif;-inkscape-font-specification:'sans-serif Bold';letter-spacing:0px;word-spacing:0px;fill:#000000;fill-opacity:1;stroke:none;stroke-width:1px;stroke-linecap:butt;stroke-linejoin:miter;stroke-opacity:1"
         id="path9845"
         inkscape:connector-curvature="0" /><path
         d="m -22.7433,87.81814 q 0,0.77256 0.26214,1.16575 0.26214,0.38628 0.77256,0.38628 0.46906,0 0.73808,-0.3104 0.26214,-0.31731 0.26214,-0.87604 0,-0.6967 -0.49667,-1.17266 -0.50355,-0.47596 -1.25547,-0.47596 h -0.28278 z m -0.93124,-3.7732 h 4.40783 v 2.49017 h -1.14504 q 0.70359,0.49666 1.02773,1.11747 0.31735,0.62082 0.31735,1.51066 0,1.20024 -0.69671,1.95213 -0.70359,0.74498 -1.82103,0.74498 -1.35893,0 -1.99355,-0.93123 -0.63462,-0.93812 -0.63462,-2.93854 v -1.45547 h -0.19316 q -0.58628,0 -0.8553,0.46216 -0.2759,0.46217 -0.2759,1.44168 0,0.79327 0.15859,1.47617 0.15868,0.6829 0.47603,1.26923 h -1.88321 q -0.19317,-0.79327 -0.28966,-1.59344 -0.10355,-0.80016 -0.10355,-1.60033 0,-2.09008 0.82778,-3.01441 0.8209,-0.93123 2.67642,-0.93123 z"
         style="font-style:normal;font-variant:normal;font-weight:bold;font-stretch:normal;font-size:medium;line-height:125%;font-family:sans-serif;-inkscape-font-specification:'sans-serif Bold';letter-spacing:0px;word-spacing:0px;fill:#000000;fill-opacity:1;stroke:none;stroke-width:1px;stroke-linecap:butt;stroke-linejoin:miter;stroke-opacity:1"
         id="path9847"
         inkscape:connector-curvature="0" /><path
         d="m -26.75105,75.72598 h 1.87625 q -0.33111,0.79327 -0.49658,1.53136 -0.16556,0.73808 -0.16556,1.39338 0,0.7036 0.17932,1.04849 0.17243,0.338 0.53803,0.338 0.29663,0 0.45531,-0.25522 0.15858,-0.26212 0.23453,-0.93122 l 0.0624,-0.43458 q 0.2415,-1.89694 0.79329,-2.55225 0.55189,-0.65531 1.73142,-0.65531 1.23474,0 1.85551,0.91054 0.62086,0.91053 0.62086,2.7178 0,0.76568 -0.12419,1.58654 -0.11722,0.81396 -0.35872,1.67621 h -1.87624 q 0.35872,-0.73809 0.53803,-1.51067 0.17941,-0.77947 0.17941,-1.57963 0,-0.72429 -0.20005,-1.08988 -0.20004,-0.3656 -0.59325,-0.3656 -0.33111,0 -0.4897,0.25524 -0.16555,0.24832 -0.25525,1.00019 l -0.055,0.43458 q -0.20692,1.64862 -0.76568,2.31082 -0.55868,0.66221 -1.69684,0.66221 -1.22787,0 -1.82112,-0.84156 -0.59325,-0.84155 -0.59325,-2.57984 0,-0.6829 0.10355,-1.43477 0.10346,-0.75188 0.32415,-1.63483 z"
         style="font-style:normal;font-variant:normal;font-weight:bold;font-stretch:normal;font-size:medium;line-height:125%;font-family:sans-serif;-inkscape-font-specification:'sans-serif Bold';letter-spacing:0px;word-spacing:0px;fill:#000000;fill-opacity:1;stroke:none;stroke-width:1px;stroke-linecap:butt;stroke-linejoin:miter;stroke-opacity:1"
         id="path9849"
         inkscape:connector-curvature="0" /><path
         d="m -29.18596,70.67666 h 2.19351 v -2.54535 h 1.7659 v 2.54535 h 3.27654 q 0.53804,0 0.7312,-0.21383 0.1862,-0.21384 0.1862,-0.84846 v -1.26922 h 1.7659 v 2.11768 q 0,1.46237 -0.60701,2.07628 -0.61398,0.60703 -2.07629,0.60703 h -3.27654 v 1.22784 h -1.7659 v -1.22784 h -2.19351 z"
         style="font-style:normal;font-variant:normal;font-weight:bold;font-stretch:normal;font-size:medium;line-height:125%;font-family:sans-serif;-inkscape-font-specification:'sans-serif Bold';letter-spacing:0px;word-spacing:0px;fill:#000000;fill-opacity:1;stroke:none;stroke-width:1px;stroke-linecap:butt;stroke-linejoin:miter;stroke-opacity:1"
         id="path9851"
         inkscape:connector-curvature="0" /><path
         d="m -20.38415,59.23292 h 4.05599 v 2.46948 h -10.66429 v -2.46948 h 1.13128 q -0.67598,-0.51044 -0.99334,-1.13127 -0.32423,-0.62081 -0.32423,-1.42788 0,-1.42787 1.13826,-2.3453 1.13119,-0.91744 2.91782,-0.91744 1.78654,0 2.92471,0.91744 1.13128,0.91743 1.13128,2.3453 0,0.80707 -0.31735,1.42788 -0.32414,0.62083 -1.00013,1.13127 z m -5.00108,-1.64171 q 0,0.79327 0.58637,1.22093 0.5794,0.42078 1.6762,0.42078 1.09671,0 1.68308,-0.42078 0.5794,-0.42766 0.5794,-1.22093 0,-0.79327 -0.5794,-1.20715 -0.5794,-0.42078 -1.68308,-0.42078 -1.10368,0 -1.68317,0.42078 -0.5794,0.41388 -0.5794,1.20715 z"
         style="font-style:normal;font-variant:normal;font-weight:bold;font-stretch:normal;font-size:medium;line-height:125%;font-family:sans-serif;-inkscape-font-specification:'sans-serif Bold';letter-spacing:0px;word-spacing:0px;fill:#000000;fill-opacity:1;stroke:none;stroke-width:1px;stroke-linecap:butt;stroke-linejoin:miter;stroke-opacity:1"
         id="path9853"
         inkscape:connector-curvature="0" /><path
         d="m -24.88856,45.83706 q -0.1518,0.3242 -0.22077,0.6484 -0.0761,0.31731 -0.0761,0.64151 0,0.95193 0.61389,1.46927 0.6071,0.51045 1.74526,0.51045 h 3.55932 v 2.46948 h -7.72574 v -2.46948 h 1.26923 q -0.7588,-0.47595 -1.10367,-1.08988 -0.35185,-0.62081 -0.35185,-1.48306 0,-0.12416 0.0138,-0.26902 0.009,-0.14486 0.0413,-0.42078 l 2.23496,-0.007 z"
         style="font-style:normal;font-variant:normal;font-weight:bold;font-stretch:normal;font-size:medium;line-height:125%;font-family:sans-serif;-inkscape-font-specification:'sans-serif Bold';letter-spacing:0px;word-spacing:0px;fill:#000000;fill-opacity:1;stroke:none;stroke-width:1px;stroke-linecap:butt;stroke-linejoin:miter;stroke-opacity:1"
         id="path9855"
         inkscape:connector-curvature="0" /><path
         d="m -23.15027,36.88348 h 0.7036 v 5.77361 q 0.86914,-0.0897 1.30372,-0.62772 0.43457,-0.53804 0.43457,-1.50375 0,-0.77948 -0.22765,-1.59344 -0.23453,-0.82086 -0.70359,-1.6831 h 1.90385 q 0.33111,0.87604 0.49667,1.75208 0.17243,0.87604 0.17243,1.75209 0,2.09698 -1.06231,3.26274 -1.06919,1.15886 -2.99368,1.15886 -1.89009,0 -2.97304,-1.13817 -1.08304,-1.14506 -1.08304,-3.14547 0,-1.82107 1.0968,-2.91095 1.0968,-1.09678 2.93167,-1.09678 z m -0.8209,2.53846 q -0.70359,0 -1.13119,0.41388 -0.43458,0.40698 -0.43458,1.06918 0,0.71739 0.40697,1.16576 0.40009,0.44836 1.1588,0.55873 z"
         style="font-style:normal;font-variant:normal;font-weight:bold;font-stretch:normal;font-size:medium;line-height:125%;font-family:sans-serif;-inkscape-font-specification:'sans-serif Bold';letter-spacing:0px;word-spacing:0px;fill:#000000;fill-opacity:1;stroke:none;stroke-width:1px;stroke-linecap:butt;stroke-linejoin:miter;stroke-opacity:1"
         id="path9857"
         inkscape:connector-curvature="0" /><path
         d="m -26.99245,35.99364 v -2.46947 l 5.33907,-1.92454 -5.33907,-1.91764 v -2.47637 l 7.72574,3.04201 v 2.7109 z"
         style="font-style:normal;font-variant:normal;font-weight:bold;font-stretch:normal;font-size:medium;line-height:125%;font-family:sans-serif;-inkscape-font-specification:'sans-serif Bold';letter-spacing:0px;word-spacing:0px;fill:#000000;fill-opacity:1;stroke:none;stroke-width:1px;stroke-linecap:butt;stroke-linejoin:miter;stroke-opacity:1"
         id="path9859"
         inkscape:connector-curvature="0" /><path
         d="m -26.99245,25.80534 v -2.46948 h 7.72574 v 2.46948 z m -3.00753,0 v -2.46948 h 2.01419 v 2.46948 z"
         style="font-style:normal;font-variant:normal;font-weight:bold;font-stretch:normal;font-size:medium;line-height:125%;font-family:sans-serif;-inkscape-font-specification:'sans-serif Bold';letter-spacing:0px;word-spacing:0px;fill:#000000;fill-opacity:1;stroke:none;stroke-width:1px;stroke-linecap:butt;stroke-linejoin:miter;stroke-opacity:1"
         id="path9861"
         inkscape:connector-curvature="0" /><path
         d="m -23.15027,13.23722 h 0.7036 v 5.77361 q 0.86914,-0.0897 1.30372,-0.62772 0.43457,-0.53805 0.43457,-1.50376 0,-0.77947 -0.22765,-1.59344 -0.23453,-0.82085 -0.70359,-1.6831 h 1.90385 q 0.33111,0.87604 0.49667,1.75208 0.17243,0.87605 0.17243,1.75209 0,2.09698 -1.06231,3.26275 -1.06919,1.15885 -2.99368,1.15885 -1.89009,0 -2.97304,-1.13816 -1.08304,-1.14506 -1.08304,-3.14548 0,-1.82106 1.0968,-2.91094 1.0968,-1.09678 2.93167,-1.09678 z m -0.8209,2.53845 q -0.70359,0 -1.13119,0.41389 -0.43458,0.40697 -0.43458,1.06918 0,0.71738 0.40697,1.16575 0.40009,0.44837 1.1588,0.55874 z"
         style="font-style:normal;font-variant:normal;font-weight:bold;font-stretch:normal;font-size:medium;line-height:125%;font-family:sans-serif;-inkscape-font-specification:'sans-serif Bold';letter-spacing:0px;word-spacing:0px;fill:#000000;fill-opacity:1;stroke:none;stroke-width:1px;stroke-linecap:butt;stroke-linejoin:miter;stroke-opacity:1"
         id="path9863"
         inkscape:connector-curvature="0" /><path
         d="M -26.99245,12.06456 V 9.664065 l 5.32522,-1.29682 -5.32522,-1.303718 V 5.001033 l 5.2701,-1.29682 -5.2701,-1.303717 V 1.267492e-7 L -19.26671,2.034903 v 2.697109 l -5.31147,1.303717 5.31147,1.296819 v 2.697112 z"
         style="font-style:normal;font-variant:normal;font-weight:bold;font-stretch:normal;font-size:medium;line-height:125%;font-family:sans-serif;-inkscape-font-specification:'sans-serif Bold';letter-spacing:0px;word-spacing:0px;fill:#000000;fill-opacity:1;stroke:none;stroke-width:1px;stroke-linecap:butt;stroke-linejoin:miter;stroke-opacity:1"
         id="path9865"
         inkscape:connector-curvature="0" /></g><g
       inkscape:label="Helper Layer (don't use)"
       clip-path="url(#patternClipPath)"
       id="fullPattern"
       style="display:inline"><g
         inkscape:groupmode="layer"
         id="designBottom"
         inkscape:label="Pattern Background"
         transform="scale(5.12)"
         sodipodi:insensitive="true" /><g
         inkscape:groupmode="layer"
         id="designTop"
         inkscape:label="Pattern Foreground"
         transform="scale(5.12)"><g
           id="g35"
           inkscape:label="icons_top"
           transform="translate(4.3258624,24.188676)"><path
             id="path26"
             style="display:inline;fill:#000000;stroke-width:0.5"
             d="m 32.675445,8.9952428 c -0.570126,0.012305 -2.222975,0.3360045 -3.126336,0.683403 -3.699066,1.4225162 -3.683526,5.1470302 0.02479,5.9352872 1.366809,0.290534 2.716331,-0.08281 3.102875,-0.858498 0.34984,-0.702039 0.121056,-1.462429 -0.744438,-2.474403 -1.233294,-1.442021 -1.028768,-2.3722902 0.67749,-3.0826567 0.360342,-0.150021 0.324761,-0.208727 0.06561,-0.2031325 z m -3.897477,5.1418302 c 0.241128,0.0039 0.550023,0.07423 0.876427,0.226974 0.578755,0.270832 0.870146,0.658845 0.638771,0.850869 -0.293675,0.243728 -1.331043,-0.03435 -1.803207,-0.483513 -0.38536,-0.366586 -0.172324,-0.601694 0.288009,-0.59433 z"
             inkscape:label="water" /><path
             id="path24"
             style="display:inline;fill:#000000;stroke-width:0.5"
             d="m 49.21757,8.4210253 c -0.0301,0.00901 0.01056,0.083031 0.118828,0.2799985 0.326598,0.5941725 0.249025,0.7935755 -0.582504,1.4974592 -0.992169,0.839864 -1.260306,1.402458 -1.008415,2.116394 0.102652,0.290944 0.07075,0.294288 -0.218582,0.02365 -0.414038,-0.387284 -0.512668,-0.924758 -0.287056,-1.564217 0.108712,-0.308127 0.07888,-0.304333 -0.257683,0.03224 -0.893506,0.893502 -0.904335,2.074248 -0.02956,3.221131 0.164132,0.215188 0.154676,0.231632 -0.0845,0.147247 -0.251669,-0.08879 -0.496246,-0.233091 -0.778008,-0.458527 -0.249895,-0.199941 -0.253082,-0.145693 -0.02365,0.408555 0.454152,1.097118 1.371111,1.835969 2.598191,2.093315 2.114362,0.44343 4.821396,-1.332859 4.821396,-3.163528 0,-0.02384 -0.192689,0.08249 -0.428391,0.23613 -0.498892,0.325194 -0.823482,0.459642 -1.13697,0.471497 -0.304204,0.0115 -0.303561,0.003 0.01793,-0.280381 0.738566,-0.650995 1.025581,-1.110254 1.025581,-1.640892 0,-0.450514 -0.184085,-0.77929 -0.317764,-0.567436 -0.295671,0.468579 -0.790401,0.777845 -1.434898,0.897026 -0.356341,0.0659 -0.352679,0.07275 -0.322914,-0.616455 0.06527,-1.511305 -0.510707,-2.6676272 -1.539803,-3.0918117 -0.06962,-0.028695 -0.113165,-0.0468 -0.131226,-0.04139 z m 0.543786,4.2190547 c 0.05642,0.005 0.01302,0.07048 -0.100136,0.248909 -0.199136,0.314008 -0.194067,0.430713 0.02594,0.602722 0.210182,0.164327 0.369262,0.448129 0.369262,0.658798 0,0.189255 0.04366,0.189828 0.222779,0.0029 0.136544,-0.142521 0.381226,-0.256527 0.696754,-0.32444 0.14912,-0.03209 0.149124,-0.03196 0.01507,0.108528 -0.315386,0.33052 -0.345641,0.653682 -0.105476,1.127625 0.249891,0.493136 0.127466,0.751178 -0.463295,0.976753 -1.261237,0.481587 -2.839942,-0.244491 -2.263069,-1.04084 0.19171,-0.264646 0.199274,-0.44329 0.02708,-0.647927 -0.161947,-0.19246 -0.135891,-0.222556 0.131034,-0.15068 0.224373,0.06042 0.446701,0.244594 0.446701,0.370216 0,0.105652 0.0665,0.09628 0.176239,-0.02499 0.150588,-0.166397 0.117638,-0.403675 -0.09346,-0.674629 -0.382224,-0.490602 -0.09192,-0.984321 0.698662,-1.188278 0.112163,-0.02893 0.182057,-0.04766 0.215912,-0.04463 z"
             inkscape:label="fire" /><path
             id="path22"
             style="display:inline;fill:#000000;stroke-width:0.5"
             d="m 11.213878,8.3575097 c -0.118296,0.00755 -0.259465,0.071487 -0.474357,0.1581195 -4.2796106,1.7253028 -5.7475291,4.9358318 -2.8844836,6.3089368 0.7024795,0.336907 0.8642185,0.527261 0.8703235,1.024628 0.00335,0.271437 0.1600205,0.386563 0.629425,0.462341 0.529115,0.08542 0.544379,0.07025 0.4714965,-0.471305 C 9.7563279,15.320429 9.7478559,15.328829 10.448459,15.22778 13.91166,14.728276 14.45992,12.933981 12.203602,9.4839902 11.62356,8.5970857 11.474131,8.3409107 11.213878,8.3575097 Z M 10.54211,9.5873682 c 0.04368,-0.0049 -0.0067,0.182496 -0.15068,0.5619048 -0.122302,0.322334 -0.222397,0.603991 -0.222397,0.625801 0,0.02181 0.139841,-0.005 0.310707,-0.05932 0.333936,-0.106286 0.885574,-0.139766 1.20182,-0.07305 0.229516,0.04842 0.15879,0.130739 -0.113487,0.131989 -0.696769,0.0032 -1.6073401,0.498751 -1.7419816,0.948143 -0.078987,0.263638 -0.077005,0.264669 0.2719876,0.133896 0.427393,-0.160166 1.363098,-0.159674 1.763916,9.5e-4 0.270032,0.108215 0.605816,0.31828 0.369835,0.231361 -0.525048,-0.19339 -1.662038,-0.03284 -2.4024961,0.339317 -0.194636,0.09783 -0.359674,0.438939 -0.370979,0.766373 -0.011165,0.323418 -0.041015,0.311511 0.403595,0.159264 0.6817801,-0.233465 1.8195791,-0.227377 2.2455211,0.01201 0.242873,0.136501 0.228295,0.16194 -0.0555,0.09651 -0.76988,-0.177493 -1.962728,0.116234 -2.5787351,0.634956 -0.17326,0.145898 -0.1743355,0.148909 -0.227928,0.736046 -0.065428,0.716799 -0.2933665,0.448718 -0.366211,-0.430679 -0.059379,-0.716841 -0.5356535,-1.152187 -1.468849,-1.342583 -0.268694,-0.05482 -0.2859055,-0.06553 -0.1739505,-0.107956 0.269771,-0.102222 0.9438805,-0.02618 1.312256,0.14801 0.1886175,0.08919 0.349871,0.155195 0.358391,0.146675 0.5123645,-0.512365 -0.269571,-1.576805 -1.158333,-1.576805 -0.168035,0 -0.13967,-0.08197 0.04082,-0.118065 0.4845145,-0.0969 0.958556,-0.0015 1.33934,0.269699 0.145464,0.103581 0.14547,0.103615 0.200844,-0.03643 0.219187,-0.554344 0.07767,-0.832518 -0.6168365,-1.212311 -0.2517365,-0.137661 -0.251853,-0.137795 -0.08049,-0.169945 0.202158,-0.03792 0.568991,0.07399 0.8480075,0.258637 0.2475265,0.163805 0.2800035,0.144974 0.5495066,-0.316048 0.292422,-0.5002283 0.462814,-0.7528028 0.512314,-0.7583618 z"
             inkscape:label="grass" /><path
             id="path20"
             style="display:inline;fill:#000000;stroke-width:0.5"
             d="m 88.628446,8.6607579 c -0.309012,-0.00205 -0.643041,0.034995 -0.706482,0.1050945 -0.134066,0.1481265 -0.134565,2.7894466 -5.5e-4,2.9375086 0.118978,0.13147 1.109683,0.146878 1.237297,0.01927 0.178478,-0.17848 0.184287,-2.8530096 0.0065,-2.9829031 -0.07115,-0.051978 -0.296385,-0.077352 -0.536728,-0.078964 z m 1.942635,0.00629 c -0.07119,1.275e-4 -0.153533,0.0021 -0.248528,0.0021 -0.791817,0 -0.737762,-0.1144355 -0.737762,1.5657421 0,1.300648 0.0048,1.371777 0.09937,1.46637 0.08699,0.08699 0.165652,0.09937 0.629806,0.09937 0.770415,0 0.712204,0.127164 0.712204,-1.55716 0,-1.4879441 0.04323,-1.5773146 -0.455093,-1.5764231 z m 1.556396,0.39978 c -0.350092,-0.00866 -0.748684,0.080744 -0.807762,0.2361295 -0.100784,0.2650815 -0.03521,2.3457086 0.07648,2.4272926 0.147835,0.107979 1.106916,0.09875 1.229095,-0.01182 0.142295,-0.128779 0.138877,-2.3940981 -0.0038,-2.5232321 -0.09142,-0.082737 -0.283948,-0.123166 -0.494003,-0.1283645 z m -5.366897,0.042345 c -0.240287,0.00245 -0.465167,0.027585 -0.533867,0.077819 -0.149243,0.1091295 -0.149243,2.4339381 0,2.5430681 0.147779,0.108059 1.10685,0.09899 1.229095,-0.01164 0.131981,-0.119443 0.139847,-2.3661916 0.0088,-2.5110246 -0.06067,-0.067035 -0.395062,-0.1014055 -0.704002,-0.098228 z m 0.688553,3.0162811 c -0.49592,0.0036 -0.924397,0.03516 -1.051903,0.10109 -0.440336,0.227707 -0.435126,2.421495 0.0063,2.642059 0.694286,0.346913 1.789474,-0.02426 1.789474,-0.606537 0,-0.495074 0.223129,-0.721741 0.710869,-0.721741 0.675424,0 0.983629,-0.751103 0.504684,-1.230049 -0.119132,-0.119134 -1.132886,-0.190753 -1.959419,-0.184824 z m 3.872871,0.02308 c -1.271802,0 -1.339531,0.04019 -1.339531,0.792885 0,0.706004 -0.17947,0.946999 -0.705147,0.946999 -0.532103,0 -0.736427,0.214685 -0.736427,0.773811 0,0.321907 -0.220972,0.61779 -0.461197,0.61779 -0.192595,0 -0.302292,0.416303 -0.167274,0.634766 0.193187,0.312584 3.090703,0.0131 3.116798,-0.322151 0.04286,-0.550557 0.20275,-0.659584 0.967598,-0.660134 0.711907,-4.94e-4 0.769043,-0.102165 0.769043,-1.366424 0,-1.443267 0.02637,-1.417542 -1.443863,-1.417542 z"
             inkscape:label="fighting" /><path
             style="display:inline;fill:#000000;stroke-width:0.5"
             d="m 69.498304,14.329416 c 0.292429,-1.060825 0.5181,-1.933866 0.501492,-1.94009 -0.01661,-0.0062 -0.741756,0.209219 -1.611438,0.478762 -0.869682,0.269544 -1.571297,0.464167 -1.559144,0.432497 0.03471,-0.09044 3.37738,-4.8051416 3.394593,-4.7879281 0.0085,0.00845 -0.06031,0.2492275 -0.152825,0.535049 -0.366153,1.1312751 -0.772146,2.4502121 -0.758438,2.4639191 0.01428,0.01428 2.347345,-0.661672 2.757147,-0.798822 0.116188,-0.03888 0.211252,-0.05871 0.211252,-0.04405 0,0.04232 -3.186429,5.452698 -3.253732,5.524655 -0.03333,0.03563 0.178665,-0.803163 0.471093,-1.863987 z"
             id="path5"
             inkscape:label="lightning" /></g><g
           id="g45"
           inkscape:label="icons_bottom"
           transform="translate(-3.9070161,-23.31617)"><path
             style="display:inline;fill:#000000;stroke-width:0.5"
             d="m 68.651669,38.430467 c -2.3e-4,-0.433971 -0.451645,-1.782581 -0.66024,-1.972483 -0.346805,-0.315722 -1.150285,-0.28821 -2.31652,0.07932 -0.17464,0.05504 -0.297665,0.08317 -0.273385,0.06251 0.0243,-0.02066 0.22523,-0.186082 0.44655,-0.367609 1.54828,-1.269897 1.525975,-1.545173 -0.25181,-3.107416 -0.296765,-0.260784 -0.296765,-0.260784 -0.0497,-0.182817 2.220335,0.700698 2.807905,0.372484 3.08599,-1.723823 0.04195,-0.316145 0.0376,-0.324621 0.236485,0.46486 0.431425,1.712822 0.766975,1.888374 2.60148,1.36105 0.56669,-0.162894 0.56669,-0.162894 -0.10178,0.474717 -1.29999,1.239983 -1.27127,1.572691 0.23783,2.754765 0.45639,0.357488 0.46536,0.350701 -0.220595,0.166917 -1.81184,-0.485439 -2.236525,-0.211381 -2.586945,1.669404 -0.06721,0.360695 -0.147245,0.534836 -0.147355,0.320606 z"
             id="path41"
             inkscape:label="colorless" /><path
             id="path42"
             style="display:inline;fill:#000000;stroke-width:0.5"
             d="m 30.962396,31.338171 c -0.647365,0.0074 -1.14441,0.336567 -1.14441,0.821304 0,0.0159 0.262806,0.02889 0.584031,0.02899 0.758019,2.41e-4 0.80757,0.02908 1.148414,0.667 0.31059,0.581243 0.315037,0.46577 -0.04216,1.10836 -0.16384,0.294752 -0.298119,0.549507 -0.298309,0.566292 -7e-4,0.0612 0.851354,0.05068 0.926208,-0.01144 0.0785,-0.06515 0.564766,-1.063724 0.564766,-1.159859 0,-0.186821 -1.130985,-1.942369 -1.270675,-1.972389 -0.161125,-0.03463 -0.318481,-0.04996 -0.467873,-0.04826 z m -4.25396,0.04539 c -0.770654,0.01857 -0.644544,-0.08201 -1.294708,1.035499 -0.60322,1.037161 -0.6035,1.122716 -0.0026,2.092934 0.03901,0.06146 0.976944,0.0954 0.976944,0.03528 0,-0.04308 -0.175114,-0.371698 -0.368118,-0.690842 -0.2784,-0.460347 -0.252203,-0.643399 0.186157,-1.292992 0.26607,-0.394284 0.214117,-0.373562 0.939941,-0.374412 0.348565,-4.2e-4 0.632379,-0.01745 0.630379,-0.03795 -0.04333,-0.489433 -0.450805,-0.782387 -1.067925,-0.767517 z m 2.042389,1.649665 c -1.583584,0 -1.919836,0.0118 -1.906586,0.06676 0.0088,0.0367 0.43976,0.796726 0.957489,1.688957 0.51773,0.89223 0.945604,1.617206 0.951004,1.610946 0.03384,-0.0394 1.870544,-3.235338 1.893044,-3.293991 0.02411,-0.06282 -0.230023,-0.07267 -1.894951,-0.07267 z m -1.385498,3.28083 c -0.0066,5.5e-4 -0.01197,0.0039 -0.0166,0.0099 -0.485245,0.629626 -0.385899,1.291859 0.272751,1.81675 0.05695,0.04539 0.367696,0.06199 1.15261,0.06199 1.242059,0 1.116169,0.04778 1.534844,-0.582123 0.364255,-0.548028 0.359192,-0.478392 0.06809,-0.964165 -0.265324,-0.442756 -0.2527,-0.443438 -0.494384,0.02785 -0.369705,0.720936 -0.498514,0.799322 -1.231003,0.749397 -0.62364,-0.0425 -0.561473,-1.46e-4 -0.938988,-0.640869 -0.20447,-0.347025 -0.301492,-0.482466 -0.347328,-0.478744 z"
             inkscape:label="metal" /><path
             style="display:inline;fill:#000000;stroke-width:0.5"
             d="m 87.801712,37.90442 c -3.416665,-0.759263 -4.040155,-4.598002 -0.994125,-6.120731 0.67602,-0.337948 0.793715,-0.330887 0.548885,0.03293 -0.763135,1.134011 -0.09441,2.461784 1.24054,2.463149 1.33391,0.0014 1.928765,-1.281154 1.167815,-2.517849 -0.179445,-0.291634 -0.15455,-0.295748 0.411795,-0.06804 3.949927,1.588103 1.825382,7.143949 -2.37491,6.210546 z"
             id="path43"
             inkscape:label="dark" /><path
             id="path44"
             style="display:inline;fill:#000000;stroke-width:0.5"
             d="m 8.0584037,31.094893 c -1.2988097,0.01966 -2.3939197,0.78893 -2.6687627,2.085114 -0.3972775,1.873597 1.5657595,4.586707 3.7290577,5.153846 1.1213093,0.29397 2.1905773,0.01132 3.0227663,-0.798797 0.460967,-0.448745 0.465364,-0.476278 0.127983,-0.788498 -0.852555,-0.788975 -3.9859553,-3.627497 -3.9945603,-3.618622 -0.00567,0.0059 0.153718,0.636996 0.354004,1.402473 0.4161755,1.590579 0.41733,1.491635 -0.01583,1.267052 -2.8752662,-1.490754 -1.1846277,-5.172197 1.7295833,-3.76625 0.590314,0.284793 0.187514,-0.147704 -0.4447933,-0.477601 -0.616564,-0.321683 -1.2490795,-0.467651 -1.839447,-0.458717 z m 1.552391,4.2799 c 0.076976,0.0088 0.8113243,0.652172 0.9284973,0.816726 0.06,0.08425 0.09084,0.151083 0.06847,0.148583 -0.202614,-0.02254 -0.7981233,-0.214677 -0.8417133,-0.271607 -0.061117,-0.07982 -0.1951735,-0.657792 -0.1605985,-0.692367 0.00105,-0.001 0.00285,-0.0016 0.00534,-0.0014 z"
             inkscape:label="dragon" /><path
             id="path45"
             style="fill:#000000;stroke-width:0.5"
             d="m 48.710186,31.759816 c -0.813572,0.0011 -1.632263,0.269145 -2.371979,0.829125 -0.81612,0.617818 -1.858085,2.19955 -1.676178,2.544403 0.710116,1.346207 2.233644,2.468226 3.566933,2.6268 2.203755,0.262102 5.212158,-1.917831 4.502678,-3.26271 -0.933319,-1.769183 -2.468273,-2.739804 -4.021454,-2.737618 z m -1.200676,1.091385 c 0.05188,1.73e-4 -0.0092,0.08486 -0.17891,0.257301 -1.246709,1.266788 -0.480642,3.412364 1.265526,3.544426 1.884607,0.142533 2.912628,-2.188767 1.561165,-3.54023 -0.377565,-0.377565 -0.0981,-0.327076 0.516701,0.09327 0.564886,0.386216 1.437871,1.488393 1.373291,1.73378 -0.147712,0.56126 -1.355168,1.623052 -2.176857,1.914215 -1.459323,0.517107 -3.43504,-0.286107 -4.289246,-1.743698 -0.247648,-0.422581 0.609295,-1.551399 1.600075,-2.107621 0.17926,-0.100636 0.287903,-0.151578 0.328255,-0.151443 z m 1.147651,0.734138 c 0.12637,0.0017 0.330153,0.03834 0.453186,0.09422 0.679192,0.308514 0.752081,1.228755 0.131989,1.666832 -0.471988,0.333446 -1.100427,0.157571 -1.38607,-0.388145 -0.07538,-0.144019 -0.0753,-0.144055 0.09308,-0.11673 0.710303,0.115266 0.98978,-0.453866 0.598145,-1.218033 -0.01413,-0.02757 0.03385,-0.03917 0.109672,-0.03815 z"
             inkscape:label="psychic" /></g><g
           id="g50"
           inkscape:label="icons_top"
           transform="translate(44.325862,74.363883)"><path
             id="path46"
             style="display:inline;fill:#000000;stroke-width:0.5"
             d="m 32.675445,8.9952428 c -0.570126,0.012305 -2.222975,0.3360045 -3.126336,0.683403 -3.699066,1.4225162 -3.683526,5.1470302 0.02479,5.9352872 1.366809,0.290534 2.716331,-0.08281 3.102875,-0.858498 0.34984,-0.702039 0.121056,-1.462429 -0.744438,-2.474403 -1.233294,-1.442021 -1.028768,-2.3722902 0.67749,-3.0826567 0.360342,-0.150021 0.324761,-0.208727 0.06561,-0.2031325 z m -3.897477,5.1418302 c 0.241128,0.0039 0.550023,0.07423 0.876427,0.226974 0.578755,0.270832 0.870146,0.658845 0.638771,0.850869 -0.293675,0.243728 -1.331043,-0.03435 -1.803207,-0.483513 -0.38536,-0.366586 -0.172324,-0.601694 0.288009,-0.59433 z"
             inkscape:label="water" /><path
             id="path47"
             style="display:inline;fill:#000000;stroke-width:0.5"
             d="m 49.21757,8.4210253 c -0.0301,0.00901 0.01056,0.083031 0.118828,0.2799985 0.326598,0.5941725 0.249025,0.7935755 -0.582504,1.4974592 -0.992169,0.839864 -1.260306,1.402458 -1.008415,2.116394 0.102652,0.290944 0.07075,0.294288 -0.218582,0.02365 -0.414038,-0.387284 -0.512668,-0.924758 -0.287056,-1.564217 0.108712,-0.308127 0.07888,-0.304333 -0.257683,0.03224 -0.893506,0.893502 -0.904335,2.074248 -0.02956,3.221131 0.164132,0.215188 0.154676,0.231632 -0.0845,0.147247 -0.251669,-0.08879 -0.496246,-0.233091 -0.778008,-0.458527 -0.249895,-0.199941 -0.253082,-0.145693 -0.02365,0.408555 0.454152,1.097118 1.371111,1.835969 2.598191,2.093315 2.114362,0.44343 4.821396,-1.332859 4.821396,-3.163528 0,-0.02384 -0.192689,0.08249 -0.428391,0.23613 -0.498892,0.325194 -0.823482,0.459642 -1.13697,0.471497 -0.304204,0.0115 -0.303561,0.003 0.01793,-0.280381 0.738566,-0.650995 1.025581,-1.110254 1.025581,-1.640892 0,-0.450514 -0.184085,-0.77929 -0.317764,-0.567436 -0.295671,0.468579 -0.790401,0.777845 -1.434898,0.897026 -0.356341,0.0659 -0.352679,0.07275 -0.322914,-0.616455 0.06527,-1.511305 -0.510707,-2.6676272 -1.539803,-3.0918117 -0.06962,-0.028695 -0.113165,-0.0468 -0.131226,-0.04139 z m 0.543786,4.2190547 c 0.05642,0.005 0.01302,0.07048 -0.100136,0.248909 -0.199136,0.314008 -0.194067,0.430713 0.02594,0.602722 0.210182,0.164327 0.369262,0.448129 0.369262,0.658798 0,0.189255 0.04366,0.189828 0.222779,0.0029 0.136544,-0.142521 0.381226,-0.256527 0.696754,-0.32444 0.14912,-0.03209 0.149124,-0.03196 0.01507,0.108528 -0.315386,0.33052 -0.345641,0.653682 -0.105476,1.127625 0.249891,0.493136 0.127466,0.751178 -0.463295,0.976753 -1.261237,0.481587 -2.839942,-0.244491 -2.263069,-1.04084 0.19171,-0.264646 0.199274,-0.44329 0.02708,-0.647927 -0.161947,-0.19246 -0.135891,-0.222556 0.131034,-0.15068 0.224373,0.06042 0.446701,0.244594 0.446701,0.370216 0,0.105652 0.0665,0.09628 0.176239,-0.02499 0.150588,-0.166397 0.117638,-0.403675 -0.09346,-0.674629 -0.382224,-0.490602 -0.09192,-0.984321 0.698662,-1.188278 0.112163,-0.02893 0.182057,-0.04766 0.215912,-0.04463 z"
             inkscape:label="fire" /><path
             id="path48"
             style="display:inline;fill:#000000;stroke-width:0.5"
             d="m 11.213878,8.3575097 c -0.118296,0.00755 -0.259465,0.071487 -0.474357,0.1581195 -4.2796106,1.7253028 -5.7475291,4.9358318 -2.8844836,6.3089368 0.7024795,0.336907 0.8642185,0.527261 0.8703235,1.024628 0.00335,0.271437 0.1600205,0.386563 0.629425,0.462341 0.529115,0.08542 0.544379,0.07025 0.4714965,-0.471305 C 9.7563279,15.320429 9.7478559,15.328829 10.448459,15.22778 13.91166,14.728276 14.45992,12.933981 12.203602,9.4839902 11.62356,8.5970857 11.474131,8.3409107 11.213878,8.3575097 Z M 10.54211,9.5873682 c 0.04368,-0.0049 -0.0067,0.182496 -0.15068,0.5619048 -0.122302,0.322334 -0.222397,0.603991 -0.222397,0.625801 0,0.02181 0.139841,-0.005 0.310707,-0.05932 0.333936,-0.106286 0.885574,-0.139766 1.20182,-0.07305 0.229516,0.04842 0.15879,0.130739 -0.113487,0.131989 -0.696769,0.0032 -1.6073401,0.498751 -1.7419816,0.948143 -0.078987,0.263638 -0.077005,0.264669 0.2719876,0.133896 0.427393,-0.160166 1.363098,-0.159674 1.763916,9.5e-4 0.270032,0.108215 0.605816,0.31828 0.369835,0.231361 -0.525048,-0.19339 -1.662038,-0.03284 -2.4024961,0.339317 -0.194636,0.09783 -0.359674,0.438939 -0.370979,0.766373 -0.011165,0.323418 -0.041015,0.311511 0.403595,0.159264 0.6817801,-0.233465 1.8195791,-0.227377 2.2455211,0.01201 0.242873,0.136501 0.228295,0.16194 -0.0555,0.09651 -0.76988,-0.177493 -1.962728,0.116234 -2.5787351,0.634956 -0.17326,0.145898 -0.1743355,0.148909 -0.227928,0.736046 -0.065428,0.716799 -0.2933665,0.448718 -0.366211,-0.430679 -0.059379,-0.716841 -0.5356535,-1.152187 -1.468849,-1.342583 -0.268694,-0.05482 -0.2859055,-0.06553 -0.1739505,-0.107956 0.269771,-0.102222 0.9438805,-0.02618 1.312256,0.14801 0.1886175,0.08919 0.349871,0.155195 0.358391,0.146675 0.5123645,-0.512365 -0.269571,-1.576805 -1.158333,-1.576805 -0.168035,0 -0.13967,-0.08197 0.04082,-0.118065 0.4845145,-0.0969 0.958556,-0.0015 1.33934,0.269699 0.145464,0.103581 0.14547,0.103615 0.200844,-0.03643 0.219187,-0.554344 0.07767,-0.832518 -0.6168365,-1.212311 -0.2517365,-0.137661 -0.251853,-0.137795 -0.08049,-0.169945 0.202158,-0.03792 0.568991,0.07399 0.8480075,0.258637 0.2475265,0.163805 0.2800035,0.144974 0.5495066,-0.316048 0.292422,-0.5002283 0.462814,-0.7528028 0.512314,-0.7583618 z"
             inkscape:label="grass" /><path
             id="path49"
             style="display:inline;fill:#000000;stroke-width:0.5"
             d="m 88.628446,8.6607579 c -0.309012,-0.00205 -0.643041,0.034995 -0.706482,0.1050945 -0.134066,0.1481265 -0.134565,2.7894466 -5.5e-4,2.9375086 0.118978,0.13147 1.109683,0.146878 1.237297,0.01927 0.178478,-0.17848 0.184287,-2.8530096 0.0065,-2.9829031 -0.07115,-0.051978 -0.296385,-0.077352 -0.536728,-0.078964 z m 1.942635,0.00629 c -0.07119,1.275e-4 -0.153533,0.0021 -0.248528,0.0021 -0.791817,0 -0.737762,-0.1144355 -0.737762,1.5657421 0,1.300648 0.0048,1.371777 0.09937,1.46637 0.08699,0.08699 0.165652,0.09937 0.629806,0.09937 0.770415,0 0.712204,0.127164 0.712204,-1.55716 0,-1.4879441 0.04323,-1.5773146 -0.455093,-1.5764231 z m 1.556396,0.39978 c -0.350092,-0.00866 -0.748684,0.080744 -0.807762,0.2361295 -0.100784,0.2650815 -0.03521,2.3457086 0.07648,2.4272926 0.147835,0.107979 1.106916,0.09875 1.229095,-0.01182 0.142295,-0.128779 0.138877,-2.3940981 -0.0038,-2.5232321 -0.09142,-0.082737 -0.283948,-0.123166 -0.494003,-0.1283645 z m -5.366897,0.042345 c -0.240287,0.00245 -0.465167,0.027585 -0.533867,0.077819 -0.149243,0.1091295 -0.149243,2.4339381 0,2.5430681 0.147779,0.108059 1.10685,0.09899 1.229095,-0.01164 0.131981,-0.119443 0.139847,-2.3661916 0.0088,-2.5110246 -0.06067,-0.067035 -0.395062,-0.1014055 -0.704002,-0.098228 z m 0.688553,3.0162811 c -0.49592,0.0036 -0.924397,0.03516 -1.051903,0.10109 -0.440336,0.227707 -0.435126,2.421495 0.0063,2.642059 0.694286,0.346913 1.789474,-0.02426 1.789474,-0.606537 0,-0.495074 0.223129,-0.721741 0.710869,-0.721741 0.675424,0 0.983629,-0.751103 0.504684,-1.230049 -0.119132,-0.119134 -1.132886,-0.190753 -1.959419,-0.184824 z m 3.872871,0.02308 c -1.271802,0 -1.339531,0.04019 -1.339531,0.792885 0,0.706004 -0.17947,0.946999 -0.705147,0.946999 -0.532103,0 -0.736427,0.214685 -0.736427,0.773811 0,0.321907 -0.220972,0.61779 -0.461197,0.61779 -0.192595,0 -0.302292,0.416303 -0.167274,0.634766 0.193187,0.312584 3.090703,0.0131 3.116798,-0.322151 0.04286,-0.550557 0.20275,-0.659584 0.967598,-0.660134 0.711907,-4.94e-4 0.769043,-0.102165 0.769043,-1.366424 0,-1.443267 0.02637,-1.417542 -1.443863,-1.417542 z"
             inkscape:label="fighting" /><path
             style="display:inline;fill:#000000;stroke-width:0.5"
             d="m 69.498304,14.329416 c 0.292429,-1.060825 0.5181,-1.933866 0.501492,-1.94009 -0.01661,-0.0062 -0.741756,0.209219 -1.611438,0.478762 -0.869682,0.269544 -1.571297,0.464167 -1.559144,0.432497 0.03471,-0.09044 3.37738,-4.8051416 3.394593,-4.7879281 0.0085,0.00845 -0.06031,0.2492275 -0.152825,0.535049 -0.366153,1.1312751 -0.772146,2.4502121 -0.758438,2.4639191 0.01428,0.01428 2.347345,-0.661672 2.757147,-0.798822 0.116188,-0.03888 0.211252,-0.05871 0.211252,-0.04405 0,0.04232 -3.186429,5.452698 -3.253732,5.524655 -0.03333,0.03563 0.178665,-0.803163 0.471093,-1.863987 z"
             id="path50"
             inkscape:label="lightning" /></g><g
           id="g55"
           inkscape:label="icons_bottom"
           transform="translate(16.092984,26.859036)"><path
             style="display:inline;fill:#000000;stroke-width:0.5"
             d="m 68.651669,38.430467 c -2.3e-4,-0.433971 -0.451645,-1.782581 -0.66024,-1.972483 -0.346805,-0.315722 -1.150285,-0.28821 -2.31652,0.07932 -0.17464,0.05504 -0.297665,0.08317 -0.273385,0.06251 0.0243,-0.02066 0.22523,-0.186082 0.44655,-0.367609 1.54828,-1.269897 1.525975,-1.545173 -0.25181,-3.107416 -0.296765,-0.260784 -0.296765,-0.260784 -0.0497,-0.182817 2.220335,0.700698 2.807905,0.372484 3.08599,-1.723823 0.04195,-0.316145 0.0376,-0.324621 0.236485,0.46486 0.431425,1.712822 0.766975,1.888374 2.60148,1.36105 0.56669,-0.162894 0.56669,-0.162894 -0.10178,0.474717 -1.29999,1.239983 -1.27127,1.572691 0.23783,2.754765 0.45639,0.357488 0.46536,0.350701 -0.220595,0.166917 -1.81184,-0.485439 -2.236525,-0.211381 -2.586945,1.669404 -0.06721,0.360695 -0.147245,0.534836 -0.147355,0.320606 z"
             id="path51"
             inkscape:label="colorless" /><path
             id="path52"
             style="display:inline;fill:#000000;stroke-width:0.5"
             d="m 30.962396,31.338171 c -0.647365,0.0074 -1.14441,0.336567 -1.14441,0.821304 0,0.0159 0.262806,0.02889 0.584031,0.02899 0.758019,2.41e-4 0.80757,0.02908 1.148414,0.667 0.31059,0.581243 0.315037,0.46577 -0.04216,1.10836 -0.16384,0.294752 -0.298119,0.549507 -0.298309,0.566292 -7e-4,0.0612 0.851354,0.05068 0.926208,-0.01144 0.0785,-0.06515 0.564766,-1.063724 0.564766,-1.159859 0,-0.186821 -1.130985,-1.942369 -1.270675,-1.972389 -0.161125,-0.03463 -0.318481,-0.04996 -0.467873,-0.04826 z m -4.25396,0.04539 c -0.770654,0.01857 -0.644544,-0.08201 -1.294708,1.035499 -0.60322,1.037161 -0.6035,1.122716 -0.0026,2.092934 0.03901,0.06146 0.976944,0.0954 0.976944,0.03528 0,-0.04308 -0.175114,-0.371698 -0.368118,-0.690842 -0.2784,-0.460347 -0.252203,-0.643399 0.186157,-1.292992 0.26607,-0.394284 0.214117,-0.373562 0.939941,-0.374412 0.348565,-4.2e-4 0.632379,-0.01745 0.630379,-0.03795 -0.04333,-0.489433 -0.450805,-0.782387 -1.067925,-0.767517 z m 2.042389,1.649665 c -1.583584,0 -1.919836,0.0118 -1.906586,0.06676 0.0088,0.0367 0.43976,0.796726 0.957489,1.688957 0.51773,0.89223 0.945604,1.617206 0.951004,1.610946 0.03384,-0.0394 1.870544,-3.235338 1.893044,-3.293991 0.02411,-0.06282 -0.230023,-0.07267 -1.894951,-0.07267 z m -1.385498,3.28083 c -0.0066,5.5e-4 -0.01197,0.0039 -0.0166,0.0099 -0.485245,0.629626 -0.385899,1.291859 0.272751,1.81675 0.05695,0.04539 0.367696,0.06199 1.15261,0.06199 1.242059,0 1.116169,0.04778 1.534844,-0.582123 0.364255,-0.548028 0.359192,-0.478392 0.06809,-0.964165 -0.265324,-0.442756 -0.2527,-0.443438 -0.494384,0.02785 -0.369705,0.720936 -0.498514,0.799322 -1.231003,0.749397 -0.62364,-0.0425 -0.561473,-1.46e-4 -0.938988,-0.640869 -0.20447,-0.347025 -0.301492,-0.482466 -0.347328,-0.478744 z"
             inkscape:label="metal" /><path
             style="display:inline;fill:#000000;stroke-width:0.5"
             d="m 87.801712,37.90442 c -3.416665,-0.759263 -4.040155,-4.598002 -0.994125,-6.120731 0.67602,-0.337948 0.793715,-0.330887 0.548885,0.03293 -0.763135,1.134011 -0.09441,2.461784 1.24054,2.463149 1.33391,0.0014 1.928765,-1.281154 1.167815,-2.517849 -0.179445,-0.291634 -0.15455,-0.295748 0.411795,-0.06804 3.949927,1.588103 1.825382,7.143949 -2.37491,6.210546 z"
             id="path53"
             inkscape:label="dark" /><path
             id="path54"
             style="display:inline;fill:#000000;stroke-width:0.5"
             d="m 8.0584037,31.094893 c -1.2988097,0.01966 -2.3939197,0.78893 -2.6687627,2.085114 -0.3972775,1.873597 1.5657595,4.586707 3.7290577,5.153846 1.1213093,0.29397 2.1905773,0.01132 3.0227663,-0.798797 0.460967,-0.448745 0.465364,-0.476278 0.127983,-0.788498 -0.852555,-0.788975 -3.9859553,-3.627497 -3.9945603,-3.618622 -0.00567,0.0059 0.153718,0.636996 0.354004,1.402473 0.4161755,1.590579 0.41733,1.491635 -0.01583,1.267052 -2.8752662,-1.490754 -1.1846277,-5.172197 1.7295833,-3.76625 0.590314,0.284793 0.187514,-0.147704 -0.4447933,-0.477601 -0.616564,-0.321683 -1.2490795,-0.467651 -1.839447,-0.458717 z m 1.552391,4.2799 c 0.076976,0.0088 0.8113243,0.652172 0.9284973,0.816726 0.06,0.08425 0.09084,0.151083 0.06847,0.148583 -0.202614,-0.02254 -0.7981233,-0.214677 -0.8417133,-0.271607 -0.061117,-0.07982 -0.1951735,-0.657792 -0.1605985,-0.692367 0.00105,-0.001 0.00285,-0.0016 0.00534,-0.0014 z"
             inkscape:label="dragon" /><path
             id="path55"
             style="fill:#000000;stroke-width:0.5"
             d="m 48.710186,31.759816 c -0.813572,0.0011 -1.632263,0.269145 -2.371979,0.829125 -0.81612,0.617818 -1.858085,2.19955 -1.676178,2.544403 0.710116,1.346207 2.233644,2.468226 3.566933,2.6268 2.203755,0.262102 5.212158,-1.917831 4.502678,-3.26271 -0.933319,-1.769183 -2.468273,-2.739804 -4.021454,-2.737618 z m -1.200676,1.091385 c 0.05188,1.73e-4 -0.0092,0.08486 -0.17891,0.257301 -1.246709,1.266788 -0.480642,3.412364 1.265526,3.544426 1.884607,0.142533 2.912628,-2.188767 1.561165,-3.54023 -0.377565,-0.377565 -0.0981,-0.327076 0.516701,0.09327 0.564886,0.386216 1.437871,1.488393 1.373291,1.73378 -0.147712,0.56126 -1.355168,1.623052 -2.176857,1.914215 -1.459323,0.517107 -3.43504,-0.286107 -4.289246,-1.743698 -0.247648,-0.422581 0.609295,-1.551399 1.600075,-2.107621 0.17926,-0.100636 0.287903,-0.151578 0.328255,-0.151443 z m 1.147651,0.734138 c 0.12637,0.0017 0.330153,0.03834 0.453186,0.09422 0.679192,0.308514 0.752081,1.228755 0.131989,1.666832 -0.471988,0.333446 -1.100427,0.157571 -1.38607,-0.388145 -0.07538,-0.144019 -0.0753,-0.144055 0.09308,-0.11673 0.710303,0.115266 0.98978,-0.453866 0.598145,-1.218033 -0.01413,-0.02757 0.03385,-0.03917 0.109672,-0.03815 z"
             inkscape:label="psychic" /></g></g><g
         id="designBottomGenerator"
         sodipodi:insensitive="true"><use
           height="100%"
           width="100%"
           id="bottom1"
           transform="translate(-512,-512)"
           xlink:href="#designBottom"
           y="0"
           x="0" /><use
           height="100%"
           width="100%"
           id="bottom2"
           transform="translate(0,-512)"
           xlink:href="#designBottom"
           y="0"
           x="0" /><use
           height="100%"
           width="100%"
           id="bottom3"
           transform="translate(512,-512)"
           xlink:href="#designBottom"
           y="0"
           x="0" /><use
           height="100%"
           width="100%"
           id="bottom4"
           transform="translate(-512)"
           xlink:href="#designBottom"
           y="0"
           x="0" /><use
           height="100%"
           width="100%"
           id="bottom5"
           xlink:href="#designBottom"
           y="0"
           x="0" /><use
           height="100%"
           width="100%"
           id="bottom6"
           transform="translate(512)"
           xlink:href="#designBottom"
           y="0"
           x="0" /><use
           height="100%"
           width="100%"
           id="bottom7"
           transform="translate(-512,512)"
           xlink:href="#designBottom"
           y="0"
           x="0" /><use
           height="100%"
           width="100%"
           id="bottom8"
           transform="translate(0,512)"
           xlink:href="#designBottom"
           y="0"
           x="0" /><use
           transform="translate(512,512)"
           height="100%"
           width="100%"
           id="bottom9"
           xlink:href="#designBottom"
           y="0"
           x="0" /></g><g
         id="designTopGenerator"
         sodipodi:insensitive="true"><use
           height="100%"
           width="100%"
           id="top1"
           transform="translate(-512,-512)"
           xlink:href="#designTop"
           y="0"
           x="0" /><use
           height="100%"
           width="100%"
           id="top2"
           transform="translate(0,-512)"
           xlink:href="#designTop"
           y="0"
           x="0" /><use
           height="100%"
           width="100%"
           id="top3"
           transform="translate(512,-512)"
           xlink:href="#designTop"
           y="0"
           x="0" /><use
           height="100%"
           width="100%"
           id="top4"
           transform="translate(-512)"
           xlink:href="#designTop"
           y="0"
           x="0" /><use
           height="100%"
           width="100%"
           id="top5"
           xlink:href="#designTop"
           y="0"
           x="0" /><use
           height="100%"
           width="100%"
           id="top6"
           transform="translate(512)"
           xlink:href="#designTop"
           y="0"
           x="0" /><use
           height="100%"
           width="100%"
           id="top7"
           transform="translate(-512,512)"
           xlink:href="#designTop"
           y="0"
           x="0" /><use
           height="100%"
           width="100%"
           id="top8"
           transform="translate(0,512)"
           xlink:href="#designTop"
           y="0"
           x="0" /><use
           transform="translate(512,512)"
           height="100%"
           width="100%"
           id="top9"
           xlink:href="#designTop"
           y="0"
           x="0" /></g></g></g><inkscape:_templateinfo
     id="_templateinfo10"><inkscape:_name
       id="_name12">Seamless Pattern</inkscape:_name><inkscape:_shortdesc
       id="_shortdesc14">Seamless Pattern</inkscape:_shortdesc><inkscape:_keywords
       id="_keywords16">Seamless Pattern</inkscape:_keywords></inkscape:_templateinfo></svg>
